<?xml version="1.0" encoding="utf-8"?>
<!-- Generator: Adobe Illustrator 16.0.0, SVG Export Plug-In . SVG Version: 6.00 Build 0)  -->
<!DOCTYPE svg PUBLIC "-//W3C//DTD SVG 1.1//EN" "http://www.w3.org/Graphics/SVG/1.1/DTD/svg11.dtd">
<svg version="1.1" id="Layer_1" xmlns="http://www.w3.org/2000/svg" xmlns:xlink="http://www.w3.org/1999/xlink" x="0px" y="0px"
	 width="147px" height="43px" viewBox="0 0 147 43" enable-background="new 0 0 147 43" xml:space="preserve">
<g>
	<g>
		<g>
			<path fill="#FFFFFF" d="M60.372,18.148v2.206h-7.784V7.236H55.3v10.912H60.372z"/>
			<path fill="#FFFFFF" d="M64.368,16.078c0.078,0.874,0.327,1.513,0.746,1.917c0.419,0.403,0.966,0.605,1.641,0.605
				c0.344,0,0.641-0.041,0.891-0.122s0.47-0.172,0.66-0.271s0.362-0.189,0.515-0.271c0.154-0.082,0.306-0.122,0.457-0.122
				c0.193,0,0.344,0.072,0.452,0.217l0.723,0.904c-0.265,0.307-0.558,0.562-0.877,0.764s-0.651,0.361-0.994,0.479
				c-0.344,0.118-0.69,0.199-1.04,0.244c-0.35,0.046-0.687,0.068-1.012,0.068c-0.651,0-1.258-0.107-1.822-0.321
				s-1.055-0.53-1.473-0.949c-0.419-0.419-0.749-0.938-0.99-1.56c-0.241-0.62-0.362-1.341-0.362-2.16
				c0-0.634,0.104-1.23,0.312-1.791s0.508-1.048,0.9-1.464c0.392-0.416,0.868-0.746,1.428-0.99c0.561-0.244,1.193-0.366,1.898-0.366
				c0.597,0,1.147,0.095,1.65,0.285c0.503,0.189,0.938,0.465,1.302,0.827c0.364,0.361,0.648,0.806,0.85,1.333
				c0.202,0.527,0.303,1.129,0.303,1.804c0,0.188-0.009,0.341-0.027,0.461c-0.018,0.121-0.048,0.218-0.09,0.29
				c-0.042,0.072-0.1,0.122-0.172,0.148c-0.072,0.027-0.166,0.041-0.28,0.041H64.368z M68.292,14.596
				c0-0.26-0.035-0.507-0.104-0.741c-0.069-0.235-0.179-0.443-0.33-0.624c-0.15-0.181-0.34-0.324-0.569-0.43
				s-0.503-0.158-0.823-0.158c-0.597,0-1.064,0.169-1.401,0.506c-0.337,0.338-0.557,0.82-0.66,1.447H68.292z"/>
			<path fill="#FFFFFF" d="M72.947,12.326c0.548-0.494,1.154-0.863,1.817-1.107s1.38-0.366,2.151-0.366
				c0.555,0,1.051,0.091,1.487,0.271s0.808,0.433,1.112,0.755s0.537,0.706,0.701,1.152c0.162,0.446,0.244,0.935,0.244,1.465v5.858
				h-1.14c-0.235,0-0.415-0.033-0.538-0.1s-0.225-0.205-0.303-0.416l-0.199-0.597c-0.234,0.205-0.463,0.386-0.683,0.543
				c-0.22,0.156-0.447,0.288-0.683,0.393c-0.234,0.106-0.486,0.186-0.755,0.24c-0.269,0.054-0.567,0.081-0.899,0.081
				c-0.41,0-0.783-0.054-1.121-0.163c-0.337-0.108-0.628-0.27-0.873-0.483s-0.433-0.48-0.565-0.8
				c-0.133-0.319-0.199-0.688-0.199-1.104c0-0.343,0.087-0.687,0.262-1.03c0.174-0.344,0.475-0.655,0.899-0.936
				s0.991-0.513,1.699-0.696c0.709-0.184,1.596-0.288,2.663-0.312v-0.479c0-0.585-0.124-1.014-0.37-1.288
				c-0.248-0.274-0.604-0.412-1.067-0.412c-0.344,0-0.63,0.041-0.858,0.122c-0.229,0.082-0.43,0.169-0.602,0.263
				s-0.334,0.181-0.484,0.262c-0.15,0.082-0.325,0.122-0.523,0.122c-0.175,0-0.321-0.043-0.439-0.131
				c-0.118-0.087-0.216-0.191-0.294-0.312L72.947,12.326z M78.028,16.458c-0.608,0.03-1.115,0.083-1.519,0.158
				c-0.404,0.075-0.725,0.173-0.963,0.294c-0.238,0.12-0.407,0.258-0.507,0.411c-0.099,0.153-0.149,0.321-0.149,0.502
				c0,0.361,0.102,0.618,0.303,0.769c0.203,0.15,0.484,0.226,0.846,0.226c0.416,0,0.775-0.073,1.08-0.222
				c0.305-0.147,0.607-0.378,0.909-0.691V16.458z"/>
			<path fill="#FFFFFF" d="M85.84,12.57c0.295-0.53,0.636-0.949,1.021-1.257c0.385-0.308,0.838-0.461,1.355-0.461
				c0.422,0,0.766,0.1,1.031,0.298l-0.162,1.845c-0.031,0.121-0.078,0.203-0.141,0.249c-0.063,0.045-0.149,0.067-0.258,0.067
				c-0.097,0-0.235-0.014-0.416-0.041c-0.181-0.026-0.35-0.04-0.506-0.04c-0.229,0-0.434,0.033-0.611,0.1s-0.336,0.159-0.475,0.28
				c-0.139,0.12-0.264,0.268-0.375,0.442s-0.215,0.374-0.312,0.597v5.705h-2.495v-9.321h1.474c0.253,0,0.428,0.045,0.524,0.136
				c0.096,0.091,0.166,0.247,0.208,0.47L85.84,12.57z"/>
			<path fill="#FFFFFF" d="M93.714,12.118c0.186-0.181,0.381-0.347,0.582-0.497c0.203-0.15,0.416-0.28,0.643-0.389
				s0.471-0.193,0.732-0.253c0.262-0.061,0.547-0.091,0.854-0.091c0.507,0,0.956,0.088,1.348,0.262
				c0.392,0.176,0.722,0.42,0.99,0.732c0.268,0.313,0.47,0.688,0.605,1.121c0.136,0.435,0.203,0.91,0.203,1.429v5.922h-2.486v-5.922
				c0-0.519-0.12-0.921-0.361-1.207s-0.597-0.43-1.066-0.43c-0.35,0-0.678,0.076-0.986,0.227c-0.307,0.15-0.6,0.361-0.877,0.633
				v6.699H91.4v-9.321h1.535c0.313,0,0.521,0.145,0.624,0.435L93.714,12.118z"/>
			<path fill="#FFFFFF" d="M114.651,13.791c0,0.958-0.161,1.84-0.483,2.645c-0.323,0.805-0.778,1.496-1.365,2.074
				c-0.588,0.579-1.294,1.031-2.12,1.356s-1.742,0.488-2.748,0.488h-5.045V7.236h5.045c1.006,0,1.922,0.162,2.748,0.488
				c0.826,0.325,1.532,0.779,2.12,1.36c0.587,0.582,1.042,1.273,1.365,2.075C114.49,11.962,114.651,12.839,114.651,13.791z
				 M111.867,13.791c0-0.688-0.091-1.305-0.271-1.854s-0.44-1.013-0.777-1.393c-0.338-0.38-0.749-0.672-1.234-0.877
				s-1.035-0.308-1.649-0.308h-2.314v8.869h2.314c0.614,0,1.164-0.101,1.649-0.303c0.485-0.201,0.896-0.494,1.234-0.877
				c0.337-0.383,0.597-0.848,0.777-1.396S111.867,14.484,111.867,13.791z"/>
			<path fill="#FFFFFF" d="M116.966,12.326c0.549-0.494,1.154-0.863,1.818-1.107c0.662-0.244,1.379-0.366,2.15-0.366
				c0.555,0,1.051,0.091,1.488,0.271c0.437,0.181,0.807,0.433,1.111,0.755s0.538,0.706,0.701,1.152
				c0.162,0.446,0.244,0.935,0.244,1.465v5.858h-1.139c-0.236,0-0.415-0.033-0.539-0.1c-0.123-0.066-0.225-0.205-0.303-0.416
				l-0.199-0.597c-0.234,0.205-0.462,0.386-0.682,0.543c-0.221,0.156-0.447,0.288-0.684,0.393c-0.234,0.106-0.486,0.186-0.754,0.24
				c-0.269,0.054-0.568,0.081-0.9,0.081c-0.41,0-0.783-0.054-1.121-0.163c-0.337-0.108-0.628-0.27-0.872-0.483
				s-0.433-0.48-0.565-0.8s-0.198-0.688-0.198-1.104c0-0.343,0.087-0.687,0.263-1.03c0.174-0.344,0.475-0.655,0.898-0.936
				c0.426-0.28,0.992-0.513,1.7-0.696s1.596-0.288,2.663-0.312v-0.479c0-0.585-0.124-1.014-0.371-1.288
				c-0.248-0.274-0.604-0.412-1.066-0.412c-0.344,0-0.631,0.041-0.859,0.122c-0.229,0.082-0.43,0.169-0.602,0.263
				s-0.333,0.181-0.483,0.262c-0.151,0.082-0.325,0.122-0.524,0.122c-0.175,0-0.32-0.043-0.438-0.131
				c-0.118-0.087-0.216-0.191-0.294-0.312L116.966,12.326z M122.048,16.458c-0.609,0.03-1.115,0.083-1.52,0.158
				s-0.725,0.173-0.963,0.294c-0.238,0.12-0.406,0.258-0.506,0.411s-0.149,0.321-0.149,0.502c0,0.361,0.101,0.618,0.303,0.769
				s0.483,0.226,0.845,0.226c0.416,0,0.776-0.073,1.081-0.222c0.304-0.147,0.606-0.378,0.909-0.691V16.458z"/>
			<path fill="#FFFFFF" d="M133.311,12.95c-0.066,0.103-0.134,0.176-0.203,0.222c-0.069,0.045-0.164,0.067-0.285,0.067
				s-0.244-0.03-0.371-0.091c-0.126-0.06-0.268-0.125-0.424-0.194c-0.157-0.068-0.336-0.134-0.539-0.194
				c-0.201-0.06-0.435-0.09-0.699-0.09c-0.404,0-0.719,0.083-0.941,0.248c-0.223,0.166-0.334,0.385-0.334,0.656
				c0,0.187,0.063,0.343,0.189,0.47s0.294,0.236,0.502,0.33s0.444,0.181,0.71,0.262c0.265,0.082,0.538,0.171,0.817,0.267
				c0.281,0.097,0.554,0.208,0.818,0.335c0.266,0.127,0.502,0.285,0.711,0.475c0.207,0.189,0.375,0.419,0.501,0.688
				c0.126,0.268,0.19,0.592,0.19,0.972c0,0.452-0.084,0.869-0.249,1.252c-0.166,0.383-0.409,0.713-0.728,0.99
				c-0.32,0.277-0.718,0.494-1.193,0.65c-0.477,0.157-1.025,0.235-1.646,0.235c-0.318,0-0.635-0.028-0.949-0.086
				c-0.313-0.058-0.611-0.139-0.895-0.244s-0.549-0.228-0.794-0.366c-0.248-0.139-0.462-0.289-0.643-0.452l0.578-0.931
				c0.066-0.108,0.15-0.193,0.249-0.253c0.1-0.061,0.227-0.091,0.383-0.091c0.151,0,0.29,0.038,0.416,0.113
				c0.127,0.075,0.269,0.156,0.426,0.244c0.156,0.087,0.342,0.169,0.556,0.244s0.48,0.112,0.8,0.112
				c0.241,0,0.449-0.026,0.624-0.081c0.175-0.054,0.316-0.128,0.425-0.222c0.109-0.093,0.188-0.198,0.24-0.316
				c0.051-0.117,0.076-0.239,0.076-0.366c0-0.204-0.064-0.372-0.194-0.502c-0.13-0.129-0.298-0.242-0.507-0.339
				c-0.207-0.096-0.447-0.184-0.719-0.262c-0.271-0.078-0.547-0.166-0.826-0.263c-0.281-0.096-0.555-0.211-0.823-0.343
				c-0.269-0.133-0.507-0.3-0.714-0.502s-0.376-0.451-0.505-0.746c-0.131-0.295-0.195-0.654-0.195-1.076
				c0-0.386,0.076-0.752,0.227-1.099c0.15-0.346,0.376-0.652,0.677-0.917c0.301-0.266,0.677-0.477,1.125-0.633
				c0.449-0.157,0.97-0.235,1.561-0.235c0.662,0,1.266,0.108,1.809,0.325c0.542,0.217,0.988,0.501,1.338,0.851L133.311,12.95z"/>
			<path fill="#FFFFFF" d="M139.097,11.946c0.175-0.156,0.357-0.3,0.547-0.43c0.19-0.129,0.392-0.24,0.606-0.334
				c0.213-0.094,0.442-0.166,0.687-0.217c0.244-0.052,0.508-0.077,0.791-0.077c0.507,0,0.956,0.088,1.347,0.262
				c0.393,0.176,0.723,0.42,0.99,0.732c0.269,0.313,0.471,0.688,0.605,1.121c0.137,0.435,0.204,0.91,0.204,1.429v5.922h-2.486
				v-5.922c0-0.519-0.12-0.921-0.362-1.207c-0.24-0.286-0.596-0.43-1.066-0.43c-0.35,0-0.678,0.076-0.985,0.227
				s-0.6,0.361-0.877,0.633v6.699h-2.495V6.874h2.495V11.946z"/>
		</g>
		<g>
			<path fill="#FFFFFF" d="M60.345,36.038h-1.441c-0.161,0-0.292-0.037-0.391-0.112c-0.099-0.075-0.174-0.171-0.225-0.288
				l-0.473-1.397h-3.047l-0.473,1.397c-0.041,0.102-0.113,0.195-0.217,0.277s-0.234,0.123-0.388,0.123h-1.452l3.102-8.014h1.903
				L60.345,36.038z M57.392,32.976l-0.743-2.195c-0.055-0.139-0.114-0.303-0.176-0.492c-0.062-0.188-0.125-0.393-0.187-0.613
				c-0.055,0.225-0.113,0.432-0.176,0.621c-0.063,0.191-0.121,0.356-0.176,0.496l-0.737,2.184H57.392z"/>
			<path fill="#FFFFFF" d="M72.494,33.965c0.044,0,0.088,0.009,0.132,0.024c0.044,0.018,0.086,0.045,0.126,0.086l0.737,0.775
				c-0.323,0.422-0.727,0.74-1.212,0.954c-0.486,0.215-1.061,0.321-1.725,0.321c-0.608,0-1.154-0.104-1.636-0.311
				c-0.482-0.207-0.891-0.492-1.227-0.857s-0.593-0.798-0.772-1.299c-0.18-0.5-0.27-1.043-0.27-1.63
				c0-0.598,0.097-1.147,0.292-1.647s0.467-0.932,0.819-1.295s0.774-0.646,1.265-0.848c0.491-0.201,1.032-0.303,1.623-0.303
				c0.3,0,0.584,0.027,0.85,0.08s0.514,0.127,0.745,0.221s0.444,0.205,0.638,0.338c0.194,0.132,0.367,0.275,0.517,0.429
				l-0.627,0.842c-0.041,0.052-0.088,0.099-0.143,0.14c-0.055,0.043-0.132,0.064-0.231,0.064c-0.066,0-0.128-0.016-0.187-0.045
				s-0.121-0.064-0.187-0.107c-0.066-0.041-0.139-0.088-0.217-0.137c-0.079-0.05-0.172-0.096-0.281-0.138
				c-0.108-0.042-0.234-0.078-0.379-0.107s-0.314-0.044-0.509-0.044c-0.308,0-0.589,0.057-0.844,0.17
				c-0.255,0.114-0.475,0.28-0.66,0.498c-0.186,0.219-0.329,0.486-0.429,0.803c-0.101,0.318-0.151,0.68-0.151,1.087
				c0,0.411,0.056,0.775,0.168,1.095c0.112,0.318,0.264,0.588,0.457,0.805c0.192,0.219,0.417,0.385,0.673,0.498
				c0.257,0.113,0.532,0.171,0.825,0.171c0.168,0,0.323-0.009,0.462-0.024c0.14-0.018,0.27-0.045,0.391-0.083
				s0.234-0.09,0.341-0.153c0.106-0.064,0.215-0.146,0.325-0.245c0.044-0.036,0.092-0.067,0.143-0.091S72.439,33.965,72.494,33.965z
				"/>
			<path fill="#FFFFFF" d="M87.871,36.038h-1.44c-0.161,0-0.292-0.037-0.391-0.112s-0.174-0.171-0.226-0.288l-0.473-1.397h-3.047
				l-0.473,1.397c-0.041,0.102-0.113,0.195-0.218,0.277s-0.233,0.123-0.388,0.123h-1.452l3.103-8.014h1.902L87.871,36.038z
				 M84.918,32.976l-0.742-2.195c-0.055-0.139-0.113-0.303-0.176-0.492c-0.063-0.188-0.125-0.393-0.188-0.613
				c-0.055,0.225-0.113,0.432-0.176,0.621c-0.063,0.191-0.121,0.356-0.176,0.496l-0.737,2.184H84.918z"/>
			<path fill="#FFFFFF" d="M102.155,32.029c0,0.579-0.102,1.114-0.301,1.603c-0.199,0.49-0.48,0.914-0.844,1.271
				s-0.801,0.636-1.313,0.836c-0.512,0.199-1.078,0.299-1.701,0.299h-3.113v-8.014h3.113c0.623,0,1.189,0.102,1.701,0.303
				c0.512,0.202,0.949,0.48,1.313,0.836s0.645,0.779,0.844,1.268C102.054,30.921,102.155,31.454,102.155,32.029z M100.251,32.029
				c0-0.396-0.051-0.754-0.154-1.073c-0.102-0.318-0.25-0.589-0.441-0.811c-0.193-0.223-0.43-0.393-0.707-0.512
				c-0.279-0.119-0.596-0.179-0.951-0.179h-1.244v5.153h1.244c0.355,0,0.672-0.06,0.951-0.179c0.277-0.119,0.514-0.29,0.707-0.511
				c0.191-0.223,0.34-0.492,0.441-0.813C100.2,32.788,100.251,32.429,100.251,32.029z"/>
			<path fill="#FFFFFF" d="M111.505,29.455v1.87h2.518V32.7h-2.518v1.908h3.289v1.43h-5.16v-8.014h5.16v1.431H111.505z"/>
			<path fill="#FFFFFF" d="M131.324,28.024v8.014h-1.639V31.43c0-0.106,0.004-0.222,0.008-0.347
				c0.006-0.125,0.016-0.251,0.031-0.379l-2.128,4.119c-0.066,0.129-0.154,0.225-0.266,0.291c-0.113,0.066-0.24,0.1-0.383,0.1
				h-0.254c-0.143,0-0.27-0.033-0.381-0.1c-0.113-0.066-0.201-0.162-0.268-0.291l-2.129-4.131c0.012,0.133,0.021,0.262,0.027,0.389
				c0.008,0.126,0.012,0.242,0.012,0.349v4.608h-1.639v-8.014h1.418c0.082,0,0.152,0.002,0.213,0.006s0.113,0.016,0.162,0.033
				c0.047,0.019,0.09,0.047,0.129,0.086c0.039,0.038,0.076,0.092,0.113,0.162l2.063,4.064c0.072,0.139,0.143,0.283,0.211,0.434
				s0.133,0.305,0.195,0.463c0.063-0.162,0.127-0.319,0.195-0.473c0.068-0.154,0.141-0.301,0.217-0.441l2.056-4.047
				c0.037-0.07,0.076-0.124,0.113-0.162c0.039-0.039,0.082-0.067,0.129-0.086c0.049-0.018,0.102-0.029,0.162-0.033
				s0.133-0.006,0.213-0.006H131.324z"/>
			<path fill="#FFFFFF" d="M143.096,32.991v3.047h-1.859v-3.047l-2.904-4.967h1.639c0.162,0,0.289,0.038,0.383,0.113
				s0.172,0.172,0.234,0.289l1.133,2.332c0.096,0.184,0.182,0.354,0.258,0.514c0.078,0.16,0.145,0.316,0.203,0.471
				c0.057-0.158,0.119-0.316,0.191-0.477c0.07-0.158,0.154-0.328,0.25-0.508l1.121-2.332c0.025-0.048,0.057-0.096,0.094-0.143
				c0.037-0.049,0.08-0.092,0.129-0.13c0.051-0.038,0.107-0.069,0.172-0.093c0.063-0.024,0.133-0.037,0.211-0.037H146
				L143.096,32.991z"/>
		</g>
	</g>
	<g>
		<path fill="#FFFFFF" d="M22.392,2.014c10.745,0,19.487,8.74,19.487,19.485s-8.742,19.487-19.487,19.487
			c-10.746,0-19.488-8.742-19.488-19.487S11.646,2.014,22.392,2.014 M22.392,0.109C10.58,0.109,1,9.689,1,21.499
			c0,11.822,9.58,21.392,21.392,21.392c11.812,0,21.392-9.569,21.392-21.392C43.784,9.689,34.203,0.109,22.392,0.109L22.392,0.109z"
			/>
		<path fill="#FFFFFF" d="M11.027,31.698c-0.649,0-1.17-0.521-1.17-1.161c0-0.427,0.245-0.782,0.587-0.988V18.89h1.165v10.659
			c0.343,0.206,0.582,0.562,0.582,0.988C12.191,31.178,11.668,31.698,11.027,31.698L11.027,31.698z"/>
		<path fill="#FFFFFF" d="M32.382,27.506c0,1.374-4.476,3.494-9.99,3.494S12.4,28.88,12.4,27.506v-6.888l9.991,3.568l9.99-3.568
			V27.506z"/>
		<path fill="#FFFFFF" d="M22.392,22.945L12.177,19.3l9.282-1.427c0.224,0.275,0.545,0.465,0.933,0.465
			c0.663,0,1.209-0.538,1.209-1.22c0-0.671-0.539-1.208-1.209-1.208c-0.53,0-0.97,0.343-1.134,0.813L9.872,18.468l-3.783-1.35
			L22.392,11.3l16.303,5.818L22.392,22.945z"/>
		<path fill="#FFFFFF" d="M22.392,22.945"/>
	</g>
</g>
</svg>
